<svg xmlns="http://www.w3.org/2000/svg" width="73.806" height="56.558" viewBox="0 0 73.806 56.558">
  <path id="drowning-1294816" d="M39.015,16.084a8,8,0,1,1,2.364,11.067A8,8,0,0,1,39.015,16.084ZM6.5,50.1c3.445-6.7,8.841-1.95,8.841-1.95-3.265.289-3.424,3.334-2.836,5.135.7,2.151,3.11,2.977,4.3,3.269h1.049c1.207-.241,3.863-1.348,6.494-6.454,3.453-6.7,8.841-1.95,8.841-1.95-3.265.289-3.416,3.334-2.829,5.135.7,2.151,3.1,2.977,4.31,3.269h.861c1.211-.241,3.87-1.348,6.5-6.454,3.46-6.7,8.841-1.95,8.841-1.95-3.258.289-3.416,3.334-2.822,5.135.7,2.151,3.1,2.977,4.3,3.269h1.041c1.2-.241,3.874-1.348,6.491-6.454,3.467-6.7,8.837-1.95,8.837-1.95-3.258.289-3.413,3.334-2.822,5.135.7,2.151,3.1,2.977,4.3,3.269h3.613V46.9H71.37c-1.182-.289-3.539-1.1-4.228-3.185-.576-1.766-.429-4.739,2.775-5.017,0,0-5.279-4.624-8.678,1.9a17.548,17.548,0,0,1-2.681,3.932L48.187,33.843,35.772,25.8l-4.408-2.858v0l-8.826-5.716L18.275,2.505a3.486,3.486,0,1,0-6.7,1.939L16.2,20.42a3.5,3.5,0,0,0,1.456,1.957l9.914,6.418L16.517,45.863a4.144,4.144,0,0,1-1.78-2.148c-.576-1.766-.425-4.739,2.775-5.017,0,0-5.279-4.624-8.667,1.9-2.6,4.977-5.208,6.065-6.386,6.3H0v9.658c1.2-.241,3.859-1.348,6.5-6.454Z" transform="translate(0 0)" fill="#fff"/>
</svg>
