<svg id="_9305c9fcb02731f544a11373e5e30dff" data-name="9305c9fcb02731f544a11373e5e30dff" xmlns="http://www.w3.org/2000/svg" width="52.841" height="71.717" viewBox="0 0 52.841 71.717">
  <g id="Grupo_14" data-name="Grupo 14" transform="translate(0 0)">
    <path id="Caminho_10" data-name="Caminho 10" d="M175.363-501.924c-3.735.519-9,3.2-13.923,7.106a71.733,71.733,0,0,0-8.56,8.493c-7.428,9.208-11.149,19.355-10.428,28.465,1.076,13.469,8.277,23.406,19.228,26.531a27.517,27.517,0,0,0,25.086-5.284,24.445,24.445,0,0,0,8.4-16.1,15.123,15.123,0,0,0-1.939-8.073c-1.514-2.621-3.594-5.018-7.952-9.18-2.744-2.621-2.773-2.649-3.48-4.064a15.078,15.078,0,0,1-1.415-8.452,39.115,39.115,0,0,1,.92-5.424c.1-.365.085-.378-.453-.378a11.024,11.024,0,0,0-5.391,2.144c-.637.449-1.189.8-1.217.8a3.688,3.688,0,0,1-.226-1.009,24.589,24.589,0,0,1,.269-6.727,30.164,30.164,0,0,1,2.419-6.545c.623-1.262,1.132-2.312,1.132-2.34A15.2,15.2,0,0,0,175.363-501.924Zm-3.82,28.731a16.52,16.52,0,0,0-1.373,6.209,9.24,9.24,0,0,0,2.249,6.167c1.019,1.276,2.094,2.214,5.065,4.485,3.848,2.929,5.065,4.149,6,6.026a6.724,6.724,0,0,1,.778,3.714,13.715,13.715,0,0,1-8.164,12.123,12.935,12.935,0,0,1-1.543.645l-.382.084.41-.757a7.133,7.133,0,0,0,.637-4.989c-.467-1.948-1.613-3.448-4.4-5.7-2.575-2.116-3.239-3.083-3.225-4.807l.014-1.023-.835.813a15.108,15.108,0,0,0-4.146,8.255,13.665,13.665,0,0,0-.184,3.28,8.147,8.147,0,0,0,.892,4.106c.1.239.057.239-.51-.042a12.077,12.077,0,0,1-2.943-2.158,17.137,17.137,0,0,1-4.867-8.634,12.4,12.4,0,0,1-.439-4.345,15.066,15.066,0,0,1,.311-4.191,30.349,30.349,0,0,1,5.589-11.576,36.048,36.048,0,0,1,5.108-5.144,11.833,11.833,0,0,1,5.943-2.761C171.585-473.416,171.6-473.318,171.543-473.192Z" transform="translate(-142.364 502.002)" fill="#fff"/>
  </g>
</svg>
