<svg xmlns="http://www.w3.org/2000/svg" width="83.223" height="66.189" viewBox="0 0 83.223 66.189">
  <g id="sos" transform="translate(0.202 -0.319)">
    <path id="Caminho_81" data-name="Caminho 81" d="M16.021,32.319a47.231,47.231,0,0,0,7,10c2.954,3.124,7.247,5.576,12,8a1.17,1.17,0,0,0,1,0c.455-.177.538-.545,1-1a5.94,5.94,0,0,0,1-1c1.827-2.4,4.8-5.487,8-4,.068.034-.075-.041,0,0l10,6c.034.014-.041-.014,0,0a4.564,4.564,0,0,1,2,4c0,1.718-.07,4.37-1,6-1.229,2.159-2.909,3.049-5,4a28.9,28.9,0,0,1-7,2,18.752,18.752,0,0,1-9-1,46.391,46.391,0,0,1-10-5h0c-1.582-.985-3.33-1.757-5-3a62.4,62.4,0,0,1-16-19c-3.4-6.159-6.019-12.671-5-19a14.892,14.892,0,0,1,5-9c2.261-1.827,5.062-2.346,9-2,.455.034.79.613,1,1l7,11c1,1.3,1.543,2.723,1,4a9.254,9.254,0,0,1-3,3,13.871,13.871,0,0,1-1,1c-1.528,1.107-3.6,2.486-3,4Zm19-15h4c.081.7.735.64,1,1,.428.591.206,1,1,1,.591,0,1.681.306,2,0s0-.6,0-1c0-.38.306-.7,0-1a4.132,4.132,0,0,0-2-1,9.236,9.236,0,0,1-4-2,3.992,3.992,0,0,1-1-3c0-.754-.4-1.328,0-2s1.2-.62,2-1a6.126,6.126,0,0,1,3-1,6.554,6.554,0,0,1,4,1,4.294,4.294,0,0,1,2,3l-4,1a4.581,4.581,0,0,0-1-2c-.333-.3-.416,0-1,0-.482,0-.756-.217-1,0s-1,.681-1,1c0,.231.8.817,1,1s.273-.163,1,0a20.989,20.989,0,0,1,4,1,5.984,5.984,0,0,1,2,2c.353.645,0,1.2,0,2a6.785,6.785,0,0,1-1,3,5.06,5.06,0,0,1-2,2c-.849.407-1.7,0-3,0-2.275,0-3.124-.043-4-1a7.557,7.557,0,0,1-2-4Zm14-2a9.17,9.17,0,0,1,2-6,6.366,6.366,0,0,1,5-2,6.337,6.337,0,0,1,5,2,6.666,6.666,0,0,1,2,5,13.718,13.718,0,0,1-1,5,4.066,4.066,0,0,1-2,2,8.071,8.071,0,0,1-4,1,9.039,9.039,0,0,1-4-1,3.954,3.954,0,0,1-2-2,7.761,7.761,0,0,1-1-4Zm4,0a4.543,4.543,0,0,0,1,3,2.5,2.5,0,0,0,4,0,7.862,7.862,0,0,0,1-4,4.75,4.75,0,0,0-1-3,2.5,2.5,0,0,0-4,0,7.977,7.977,0,0,0-1,4Zm11,2h4c.081.7.735.64,1,1,.428.591.206,1,1,1,.591,0,1.681.306,2,0s0-.6,0-1c0-.38.306-.7,0-1a4.132,4.132,0,0,0-2-1,9.236,9.236,0,0,1-4-2,3.992,3.992,0,0,1-1-3c0-.754-.4-1.328,0-2s1.2-.62,2-1a6.126,6.126,0,0,1,3-1,6.554,6.554,0,0,1,4,1,4.294,4.294,0,0,1,2,3l-4,1a4.581,4.581,0,0,0-1-2c-.333-.3-.416,0-1,0-.482,0-.756-.217-1,0s-1,.681-1,1c0,.231.8.817,1,1s.273-.163,1,0a20.989,20.989,0,0,1,4,1,5.983,5.983,0,0,1,2,2c.353.645,0,1.2,0,2,0,.937.475,2.212,0,3a5.06,5.06,0,0,1-2,2c-.849.407-2.7,0-4,0-2.275,0-3.124-.043-4-1a7.606,7.606,0,0,1-2-4Zm-29-17a6.955,6.955,0,0,0-5,2,6.856,6.856,0,0,0-2,5v16a6.835,6.835,0,0,0,7,7h10c-.394,1.521-.4,3.642-1,5s-1.6,1.757-3,3a22.686,22.686,0,0,0,7-3,19.03,19.03,0,0,0,5-5h24c1.9,0,2.649-.683,4-2a6.845,6.845,0,0,0,2-5v-16a6.955,6.955,0,0,0-2-5c-1.338-1.344-2.085-2-4-2Z" fill="#fff" fill-rule="evenodd"/>
  </g>
</svg>
