<?xml version="1.0" encoding="UTF-8"?>
<!DOCTYPE svg PUBLIC "-//W3C//DTD SVG 1.1//EN" "http://www.w3.org/Graphics/SVG/1.1/DTD/svg11.dtd">
<!-- Creator: CorelDRAW 2021 (64 Bit) -->
<svg xmlns="http://www.w3.org/2000/svg" xml:space="preserve" width="267.745mm" height="185.386mm" version="1.1" style="shape-rendering:geometricPrecision; text-rendering:geometricPrecision; image-rendering:optimizeQuality; fill-rule:evenodd; clip-rule:evenodd"
viewBox="0 0 2133.72 1477.38"
 xmlns:xlink="http://www.w3.org/1999/xlink"
 xmlns:xodm="http://www.corel.com/coreldraw/odm/2003">
 <defs>
  <style type="text/css">
   <![CDATA[
    .str1 {stroke:black;stroke-width:0.61;stroke-miterlimit:22.9256}
    .str0 {stroke:black;stroke-width:0.61;stroke-miterlimit:22.9256}
    .fil1 {fill:none}
    .fil3 {fill:none;fill-rule:nonzero}
    .fil4 {fill:black}
    .fil0 {fill:black}
    .fil2 {fill:black;fill-rule:nonzero}
   ]]>
  </style>
    <clipPath id="id0">
     <path d="M478.2 276.23l147.59 92.68c-0.17,0.54 -0.34,1.09 -0.5,1.63l-7.81 -4.91c-16.57,20.38 -27.01,45.62 -28.55,73.35 -4.05,72.71 54.62,135 131.04,139.13 54.72,2.96 103.7,-24.7 128.59,-67.34l-30.67 -19.26c0.29,-0.48 0.57,-0.96 0.85,-1.44l137.66 86.45 0 300.29 0 300.29 -133.2 83.64 0 -614.11 -189.22 0 0 732.93 -155.79 97.83 -170.93 -107.33 0 -294.97c0,-146.85 17.66,-246.78 161.47,-246.78 27.75,0 54.24,6.06 80.73,15.14l0 -207.41c-17.66,-6.06 -41.63,-7.57 -63.07,-7.57 -83.26,0 -136.24,46.93 -176.6,136.26l-2.52 0 0 -118.09 -189.22 0 0 604.6 -118.05 -74.13 0 -300.29 0 -300.29 239.1 -150.14 239.11 -150.14z"/>
    </clipPath>
    <clipPath id="id1">
     <path d="M478.2 276.23l147.59 92.68c-0.17,0.54 -0.34,1.09 -0.5,1.63l-7.81 -4.91c-16.57,20.38 -27.01,45.62 -28.55,73.35 -4.05,72.71 54.62,135 131.04,139.13 54.72,2.96 103.7,-24.7 128.59,-67.34l-30.67 -19.26c0.29,-0.48 0.57,-0.96 0.85,-1.44l137.66 86.45 0 300.29 0 300.29 -133.2 83.64 0 -614.11 -189.22 0 0 732.93 -155.79 97.83 -170.93 -107.33 0 -294.97c0,-146.85 17.66,-246.78 161.47,-246.78 27.75,0 54.24,6.06 80.73,15.14l0 -207.41c-17.66,-6.06 -41.63,-7.57 -63.07,-7.57 -83.26,0 -136.24,46.93 -176.6,136.26l-2.52 0 0 -118.09 -189.22 0 0 604.6 -118.05 -74.13 0 -300.29 0 -300.29 239.1 -150.14 239.11 -150.14z"/>
    </clipPath>
    <clipPath id="id2">
     <path d="M478.2 276.23l147.59 92.68c-0.17,0.54 -0.34,1.09 -0.5,1.63l-7.81 -4.91c-16.57,20.38 -27.01,45.62 -28.55,73.35 -4.05,72.71 54.62,135 131.04,139.13 54.72,2.96 103.7,-24.7 128.59,-67.34l-30.67 -19.26c0.29,-0.48 0.57,-0.96 0.85,-1.44l137.66 86.45 0 300.29 0 300.29 -133.2 83.64 0 -614.11 -189.22 0 0 732.93 -155.79 97.83 -170.93 -107.33 0 -294.97c0,-146.85 17.66,-246.78 161.47,-246.78 27.75,0 54.24,6.06 80.73,15.14l0 -207.41c-17.66,-6.06 -41.63,-7.57 -63.07,-7.57 -83.26,0 -136.24,46.93 -176.6,136.26l-2.52 0 0 -118.09 -189.22 0 0 604.6 -118.05 -74.13 0 -300.29 0 -300.29 239.1 -150.14 239.11 -150.14z"/>
    </clipPath>
 </defs>
 <g id="Camada_x0020_1">
  <metadata id="CorelCorpID_0Corel-Layer"/>
  <g id="_1805232303280">
   <g style="clip-path:url(#id0)">
    <polygon class="fil0" points="-0,276.23 956.41,276.23 956.41,1477.38 -0,1477.38 "/>
   </g>
   <g style="clip-path:url(#id1)">
   </g>
   <path id="_1" class="fil1" d="M478.2 276.23l147.59 92.68c-0.17,0.54 -0.34,1.09 -0.5,1.63l-7.81 -4.91c-16.57,20.38 -27.01,45.62 -28.55,73.35 -4.05,72.71 54.62,135 131.04,139.13 54.72,2.96 103.7,-24.7 128.59,-67.34l-30.67 -19.26c0.29,-0.48 0.57,-0.96 0.85,-1.44l137.66 86.45 0 300.29 0 300.29 -133.2 83.64 0 -614.11 -189.22 0 0 732.93 -155.79 97.83 -170.93 -107.33 0 -294.97c0,-146.85 17.66,-246.78 161.47,-246.78 27.75,0 54.24,6.06 80.73,15.14l0 -207.41c-17.66,-6.06 -41.63,-7.57 -63.07,-7.57 -83.26,0 -136.24,46.93 -176.6,136.26l-2.52 0 0 -118.09 -189.22 0 0 604.6 -118.05 -74.13 0 -300.29 0 -300.29 239.1 -150.14 239.11 -150.14z"/>
   <g style="clip-path:url(#id2)">
    <path id="_2" class="fil1 str0" d="M-0 276.23l956.41 1201.15m0 -1201.15l-956.41 1201.15"/>
   </g>
   <g>
    <path class="fil2" d="M1462.04 725.58c-56.77,-72.67 -146.33,-96.89 -227.06,-96.89 -128.67,0 -257.34,75.69 -257.34,248.03 0,280.33 319.15,180.41 319.15,298.5 0,39.36 -42.89,52.99 -85.78,52.99 -56.76,0 -98.39,-28.77 -133.71,-80.24l-114.8 152.91c60.55,74.18 155.16,99.92 240.95,99.92 131.19,0 282.57,-54.5 282.57,-242.23 0,-280.33 -319.15,-187.98 -319.15,-296.98 0,-43.65 37.85,-60.31 69.38,-60.31 45.41,0 82,21.2 109.75,61.82l116.06 -137.52zm661.01 1.51c-59.29,-72.67 -146.33,-98.41 -218.23,-98.41 -189.22,0 -340.6,151.4 -340.6,386.06 0,234.66 151.38,386.05 340.6,386.05 71.9,0 158.94,-25.74 218.23,-98.41l-124.89 -157.45c-21.44,30.27 -51.72,56.02 -93.34,56.02 -94.61,0 -151.38,-75.7 -151.38,-186.22 0,-110.52 56.77,-186.22 151.38,-186.22 39.1,0 74.42,24.22 93.34,56.01l124.89 -157.45z"/>
    <path id="_1_0" class="fil3 str1" d="M1462.04 725.58c-56.77,-72.67 -146.33,-96.89 -227.06,-96.89 -128.67,0 -257.34,75.69 -257.34,248.03 0,280.33 319.15,180.41 319.15,298.5 0,39.36 -42.89,52.99 -85.78,52.99 -56.76,0 -98.39,-28.77 -133.71,-80.24l-114.8 152.91c60.55,74.18 155.16,99.92 240.95,99.92 131.19,0 282.57,-54.5 282.57,-242.23 0,-280.33 -319.15,-187.98 -319.15,-296.98 0,-43.65 37.85,-60.31 69.38,-60.31 45.41,0 82,21.2 109.75,61.82l116.06 -137.52zm661.01 1.51c-59.29,-72.67 -146.33,-98.41 -218.23,-98.41 -189.22,0 -340.6,151.4 -340.6,386.06 0,234.66 151.38,386.05 340.6,386.05 71.9,0 158.94,-25.74 218.23,-98.41l-124.89 -157.45c-21.44,30.27 -51.72,56.02 -93.34,56.02 -94.61,0 -151.38,-75.7 -151.38,-186.22 0,-110.52 56.77,-186.22 151.38,-186.22 39.1,0 74.42,24.22 93.34,56.01l124.89 -157.45z"/>
   </g>
   <g>
    <path class="fil4" d="M1049.74 50.87c55.41,0 100.33,42.74 100.33,95.46 0,52.72 -44.92,95.46 -100.33,95.46 -55.41,0 -100.33,-42.74 -100.33,-95.46 0,-52.72 44.92,-95.46 100.33,-95.46z"/>
    <path id="_1_1" class="fil3 str1" d="M1049.74 50.87c55.41,0 100.33,42.74 100.33,95.46 0,52.72 -44.92,95.46 -100.33,95.46 -55.41,0 -100.33,-42.74 -100.33,-95.46 0,-52.72 44.92,-95.46 100.33,-95.46z"/>
   </g>
   <g>
    <path class="fil4" d="M1094.23 270.94c45.97,0 83.23,35.46 83.23,79.19 0,43.74 -37.26,79.19 -83.23,79.19 -45.97,0 -83.23,-35.45 -83.23,-79.19 0,-43.74 37.26,-79.19 83.23,-79.19z"/>
    <path id="_1_2" class="fil3 str1" d="M1094.23 270.94c45.97,0 83.23,35.46 83.23,79.19 0,43.74 -37.26,79.19 -83.23,79.19 -45.97,0 -83.23,-35.45 -83.23,-79.19 0,-43.74 37.26,-79.19 83.23,-79.19z"/>
   </g>
   <g>
    <path class="fil4" d="M2062.2 0.3c39.32,0 71.21,30.33 71.21,67.75 0,37.42 -31.89,67.75 -71.21,67.75 -39.33,0 -71.21,-30.33 -71.21,-67.75 0,-37.42 31.89,-67.75 71.21,-67.75z"/>
    <path id="_1_3" class="fil3 str1" d="M2062.2 0.3c39.32,0 71.21,30.33 71.21,67.75 0,37.42 -31.89,67.75 -71.21,67.75 -39.33,0 -71.21,-30.33 -71.21,-67.75 0,-37.42 31.89,-67.75 71.21,-67.75z"/>
   </g>
   <g>
    <path class="fil4" d="M1315.76 203.99c37.11,0 67.19,28.63 67.19,63.94 0,35.31 -30.09,63.94 -67.19,63.94 -37.11,0 -67.2,-28.63 -67.2,-63.94 0,-35.31 30.09,-63.94 67.2,-63.94z"/>
    <path id="_1_4" class="fil3 str1" d="M1315.76 203.99c37.11,0 67.19,28.63 67.19,63.94 0,35.31 -30.09,63.94 -67.19,63.94 -37.11,0 -67.2,-28.63 -67.2,-63.94 0,-35.31 30.09,-63.94 67.2,-63.94z"/>
   </g>
   <g>
    <polygon class="fil2" points="756,136.37 818.78,349.85 807.94,353.01 745.16,139.53 "/>
   </g>
   <g>
    <path class="fil2" d="M820.14 381.91l164.5 -197.41 8.69 7.18 -164.5 197.41 -3.46 1.96 -5.23 -9.14zm5.23 9.14l-14.79 2.33 9.56 -11.48 5.23 9.14zm218.54 -34.47l-218.54 34.47 -1.77 -11.11 218.54 -34.47 1.77 11.11z"/>
   </g>
   <g>
    <path class="fil2" d="M814.75 384.75l401.32 101.84 -2.79 10.9 -401.32 -101.84 -1.42 -0.57 4.21 -10.32zm-4.21 10.32l-35.75 -20.46 39.96 10.14 -4.21 10.32zm221.72 126.91l-221.72 -126.91 5.63 -9.75 221.72 126.91 -5.63 9.75z"/>
   </g>
   <path class="fil0" d="M735.25 314.07c76.42,4.13 135.09,66.42 131.04,139.13 -1.59,28.49 -12.57,54.35 -29.94,75.02 4.53,-5.48 8.62,-11.31 12.21,-17.45l-231.06 -145.13c26.83,-33.52 70.12,-54.15 117.75,-51.58z"/>
   <g>
    <path class="fil4" d="M1755.63 212.19c69.77,0 126.33,53.81 126.33,120.19 0,66.38 -56.55,120.19 -126.33,120.19 -69.77,0 -126.33,-53.81 -126.33,-120.19 0,-66.38 56.56,-120.19 126.33,-120.19z"/>
    <path id="_1_5" class="fil3 str1" d="M1755.63 212.19c69.77,0 126.33,53.81 126.33,120.19 0,66.38 -56.55,120.19 -126.33,120.19 -69.77,0 -126.33,-53.81 -126.33,-120.19 0,-66.38 56.56,-120.19 126.33,-120.19z"/>
   </g>
   <g>
    <path class="fil4" d="M1512.83 259.66c31.12,0 56.36,24.01 56.36,53.63 0,29.62 -25.24,53.63 -56.36,53.63 -31.13,0 -56.37,-24.01 -56.37,-53.63 0,-29.62 25.24,-53.63 56.37,-53.63z"/>
    <path id="_1_6" class="fil3 str1" d="M1512.83 259.66c31.12,0 56.36,24.01 56.36,53.63 0,29.62 -25.24,53.63 -56.36,53.63 -31.13,0 -56.37,-24.01 -56.37,-53.63 0,-29.62 25.24,-53.63 56.37,-53.63z"/>
   </g>
   <g>
    <path class="fil4" d="M1590.99 22.64c24.45,0 44.28,18.86 44.28,42.14 0,23.27 -19.83,42.13 -44.28,42.13 -24.46,0 -44.28,-18.86 -44.28,-42.13 0,-23.27 19.83,-42.14 44.28,-42.14z"/>
    <path id="_1_7" class="fil3 str1" d="M1590.99 22.64c24.45,0 44.28,18.86 44.28,42.14 0,23.27 -19.83,42.13 -44.28,42.13 -24.46,0 -44.28,-18.86 -44.28,-42.13 0,-23.27 19.83,-42.14 44.28,-42.14z"/>
   </g>
   <g>
    <path class="fil4" d="M1962.5 172.97c24.46,0 44.28,18.86 44.28,42.13 0,23.27 -19.82,42.13 -44.28,42.13 -24.46,0 -44.28,-18.86 -44.28,-42.13 0,-23.27 19.82,-42.13 44.28,-42.13z"/>
    <path id="_1_8" class="fil3 str1" d="M1962.5 172.97c24.46,0 44.28,18.86 44.28,42.13 0,23.27 -19.82,42.13 -44.28,42.13 -24.46,0 -44.28,-18.86 -44.28,-42.13 0,-23.27 19.82,-42.13 44.28,-42.13z"/>
   </g>
   <g>
    <path class="fil4" d="M1947.3 522.02c21.03,0 38.08,16.23 38.08,36.24 0,20.01 -17.05,36.23 -38.08,36.23 -21.04,0 -38.08,-16.22 -38.08,-36.23 0,-20.01 17.05,-36.24 38.08,-36.24z"/>
    <path id="_1_9" class="fil3 str1" d="M1947.3 522.02c21.03,0 38.08,16.23 38.08,36.24 0,20.01 -17.05,36.23 -38.08,36.23 -21.04,0 -38.08,-16.22 -38.08,-36.23 0,-20.01 17.05,-36.24 38.08,-36.24z"/>
   </g>
   <g>
    <path class="fil4" d="M1312.76 383.74c62.66,0 113.46,48.33 113.46,107.95 0,59.62 -50.8,107.96 -113.46,107.96 -62.66,0 -113.46,-48.33 -113.46,-107.96 0,-59.62 50.8,-107.95 113.46,-107.95z"/>
    <path id="_1_10" class="fil3 str1" d="M1312.76 383.74c62.66,0 113.46,48.33 113.46,107.95 0,59.62 -50.8,107.96 -113.46,107.96 -62.66,0 -113.46,-48.33 -113.46,-107.96 0,-59.62 50.8,-107.95 113.46,-107.95z"/>
   </g>
   <g>
    <path class="fil4" d="M748.54 49.13c29.27,0 53,22.57 53,50.43 0,27.85 -23.73,50.43 -53,50.43 -29.27,0 -53,-22.58 -53,-50.43 0,-27.85 23.73,-50.43 53,-50.43z"/>
    <path id="_1_11" class="fil3 str1" d="M748.54 49.13c29.27,0 53,22.57 53,50.43 0,27.85 -23.73,50.43 -53,50.43 -29.27,0 -53,-22.58 -53,-50.43 0,-27.85 23.73,-50.43 53,-50.43z"/>
   </g>
   <g>
    <path class="fil4" d="M1087.46 481.3c32.96,0 59.68,25.42 59.68,56.78 0,31.36 -26.72,56.78 -59.68,56.78 -32.96,0 -59.68,-25.42 -59.68,-56.78 0,-31.36 26.72,-56.78 59.68,-56.78z"/>
    <path id="_1_12" class="fil3 str1" d="M1087.46 481.3c32.96,0 59.68,25.42 59.68,56.78 0,31.36 -26.72,56.78 -59.68,56.78 -32.96,0 -59.68,-25.42 -59.68,-56.78 0,-31.36 26.72,-56.78 59.68,-56.78z"/>
   </g>
   <g>
    <polygon class="fil2" points="1274.16,280.98 1166.08,327.98 1161.56,317.68 1269.64,270.67 "/>
   </g>
   <g>
    <polygon class="fil2" points="1271.61,248.93 1138.1,145.52 1145.03,136.65 1278.54,240.05 "/>
   </g>
   <g>
    <polygon class="fil2" points="1497.62,311 1372.05,274.96 1375.18,264.16 1500.74,300.19 "/>
   </g>
   <g>
    <polygon class="fil2" points="1686.73,319.05 1546.86,319.05 1546.86,307.81 1686.73,307.81 "/>
   </g>
   <g>
    <polygon class="fil2" points="1599.06,76.61 1716.68,233.29 1707.63,240.02 1590.02,83.34 "/>
   </g>
   <g>
    <polygon class="fil2" points="1938.08,567.46 1807.75,391.98 1816.83,385.29 1947.16,560.77 "/>
   </g>
   <g>
    <polygon class="fil2" points="1951.28,243.36 1852.74,287.23 1848.13,276.96 1946.68,233.09 "/>
   </g>
   <g>
    <polygon class="fil2" points="2061.39,100.82 1985.1,191.69 1976.44,184.48 2052.73,93.61 "/>
   </g>
  </g>
 </g>
</svg>
