<svg id="accident-car-svgrepo-com" xmlns="http://www.w3.org/2000/svg" width="74.475" height="67.195" viewBox="0 0 74.475 67.195">
  <g id="Grupo_2" data-name="Grupo 2" transform="translate(0 3.175)">
    <g id="Grupo_1" data-name="Grupo 1">
      <path id="Caminho_2" data-name="Caminho 2" d="M21.83,58.09l-2.37-9.4a2.427,2.427,0,0,0-4.707,1.186l2.052,8.141L10.6,64.847l1.4-2.9L8.42,61.629a3.619,3.619,0,0,0-3.915,3.3L3.079,83.437s.342,2.215,1.751,11.188L.189,106.932a2.912,2.912,0,0,0,5.45,2.056l4.913-13.026a2.915,2.915,0,0,0,.152-1.48L9.05,83.95l1.536.132,4.518,10L15.293,108a2.912,2.912,0,0,0,2.911,2.873h.04a2.913,2.913,0,0,0,2.873-2.952l-.2-14.526a2.916,2.916,0,0,0-.258-1.16l-4-8.859,1.467-17.581L14.42,67.86l6.854-7.545A2.427,2.427,0,0,0,21.83,58.09Z" transform="translate(-0.001 -46.853)" fill="#fff"/>
    </g>
  </g>
  <g id="Grupo_4" data-name="Grupo 4" transform="translate(7.826 5.77)">
    <g id="Grupo_3" data-name="Grupo 3">
      <path id="Caminho_3" data-name="Caminho 3" d="M58.221,64.689a5.356,5.356,0,0,0,.852,10.628l1.232-2.354Z" transform="translate(-53.804 -64.689)" fill="#fff"/>
    </g>
  </g>
  <g id="Grupo_6" data-name="Grupo 6" transform="translate(29.408 0)">
    <g id="Grupo_5" data-name="Grupo 5">
      <path id="Caminho_4" data-name="Caminho 4" d="M231.089,32.067c-2.732-3.462-1.438-5.712-.7-6.562a.286.286,0,0,0-.2-.472c-1.125-.082-3.6.2-4.926,3.859,0,.008,0,.016-.007.023a3.553,3.553,0,0,0-2.267-1.189.287.287,0,0,0-.226.507c2.755,2.151-1.791,4.3-3.042,6.681a6.081,6.081,0,0,0-.442,1.063c-.2-.1-.4-.194-.6-.286-7.084-3.162-6.905-7.723-6.451-9.649a.5.5,0,0,0-.69-.575c-1.819.792-5.44,3.243-4.522,10.034,0,.014.006.028.008.042a6.25,6.25,0,0,0-4.5,0,.5.5,0,0,0,.062.974c6.048,1.1.722,8.159.718,12.891,0,.375.017.732.048,1.072A8.361,8.361,0,0,1,209,53.393a9.861,9.861,0,0,1,.728-6.793,6.985,6.985,0,0,0,.441-6.749.5.5,0,0,1,.646-.654c2.561.991,4.432,4.395,4.356,7.422a.5.5,0,0,0,.738.456,3.519,3.519,0,0,0,1.912-2.546.506.506,0,0,1,.518-.439c1.971.116,3.813,1.888,4.888,4.264a8.38,8.38,0,0,1,2.994-4.92,13.347,13.347,0,0,0-4.39-5.875A5.41,5.41,0,0,1,223.7,35.2a3.971,3.971,0,0,0,2-3.282.287.287,0,0,1,.5-.159,4.6,4.6,0,0,1,.234,4.888.285.285,0,0,0,.251.424,2,2,0,0,0,1.635-.777.288.288,0,0,1,.376-.085c1.442.868,1.756,3.53.793,5.641a8.306,8.306,0,0,1,1.753-.221A7.441,7.441,0,0,0,231.089,32.067Z" transform="translate(-202.174 -25.022)" fill="#fff"/>
    </g>
  </g>
  <g id="Grupo_8" data-name="Grupo 8" transform="translate(53.245 19.544)">
    <g id="Grupo_7" data-name="Grupo 7">
      <path id="Caminho_5" data-name="Caminho 5" d="M376.593,163.2a5.39,5.39,0,1,0-3.571,6.734A5.39,5.39,0,0,0,376.593,163.2Zm-4.422,3.964a2.492,2.492,0,1,1,1.651-3.114A2.492,2.492,0,0,1,372.171,167.16Z" transform="translate(-366.049 -159.386)" fill="#fff"/>
    </g>
  </g>
  <g id="Grupo_10" data-name="Grupo 10" transform="translate(24.486 28.37)">
    <g id="Grupo_9" data-name="Grupo 9">
      <path id="Caminho_6" data-name="Caminho 6" d="M178.884,223.873a5.39,5.39,0,1,0-3.571,6.734A5.39,5.39,0,0,0,178.884,223.873Zm-4.421,3.964a2.492,2.492,0,1,1,1.651-3.114A2.492,2.492,0,0,1,174.462,227.837Z" transform="translate(-168.34 -220.063)" fill="#fff"/>
    </g>
  </g>
  <g id="Grupo_12" data-name="Grupo 12" transform="translate(18.718 21.749)">
    <g id="Grupo_11" data-name="Grupo 11">
      <path id="Caminho_7" data-name="Caminho 7" d="M184.434,201.515l-1.1-13.522-2.032-6.869a3.534,3.534,0,0,0-2.825-6.426l-1.909.586a8.333,8.333,0,0,1-15.932,4.89l-12.827,3.937A8.333,8.333,0,0,1,131.876,189l-.7.214a3.534,3.534,0,0,0,.888,6.909l.5,1.621a5.574,5.574,0,0,0,6.964,3.693l4.788-1.47,9.911,9.468h-11.6a2.044,2.044,0,1,0,0,4.087h31.358a2.044,2.044,0,1,0,0-4.087h-11.11l20.434-6.271A1.588,1.588,0,0,0,184.434,201.515ZM157.3,207.356l-6.007-5.739,13.388-4.109,2.127,6.93Zm12.972-3.981-2.127-6.93,11.94-3.665.6,7.4Z" transform="translate(-128.682 -174.541)" fill="#fff"/>
    </g>
  </g>
</svg>
