<svg id="electrocution-risk-sign-svgrepo-com" xmlns="http://www.w3.org/2000/svg" width="81.092" height="84.017" viewBox="0 0 81.092 84.017">
  <g id="Grupo_13" data-name="Grupo 13" transform="translate(0 0)">
    <path id="Caminho_8" data-name="Caminho 8" d="M198.055,170.879a7.792,7.792,0,0,0-13.827,4.148q-.264,0-.527.018l-1.265-4.635,1.673-6.837a2.937,2.937,0,0,0-5.706-1.4l-1.853,7.575a2.941,2.941,0,0,0,.019,1.471l1.8,6.606-9.114,7.34a6.621,6.621,0,0,0-1.559,1.806l-9.7,2.473a3.789,3.789,0,0,0-2.105,1.411l-6.31,8.488a3.79,3.79,0,1,0,6.083,4.522l5.508-7.409,4.887-1.246-3.906,4.344a3.793,3.793,0,0,0-.967,2.339l-.484,9.368a3.79,3.79,0,0,0,3.59,3.98c.067,0,.132.005.2.005a3.79,3.79,0,0,0,3.782-3.594l.415-8.027,6.032-6.71c.028-.031.052-.065.079-.1a6.6,6.6,0,0,0,2.779-1.323l8.19-6.6,1.275,4.675-1.673,6.837a2.937,2.937,0,1,0,5.706,1.4l1.853-7.575a2.94,2.94,0,0,0-.019-1.471l-2.446-8.963q.062-.184.114-.37a7.793,7.793,0,0,0,7.477-12.554Z" transform="translate(-118.688 -131.235)" fill="#fff"/>
    <path id="Caminho_9" data-name="Caminho 9" d="M76.822,46.293a1.346,1.346,0,0,0,2.5-.9L72.7,7.458a1.346,1.346,0,0,0-2.007-.929l-13.52,7.935L55.8,1.208A1.346,1.346,0,0,0,54.091.051L36.418,5.07a1.346,1.346,0,0,0-.844,1.881L48.319,33.317a1.346,1.346,0,0,0,1.893.575l14.647-8.6Z" transform="translate(-35.44 0)" fill="#fff"/>
  </g>
</svg>
