<svg xmlns="http://www.w3.org/2000/svg" width="109.441" height="81.061" viewBox="0 0 109.441 81.061">
  <g id="WhatsApp-Image-2021-11-16-at-14.23.22" transform="translate(-24 1015.751)">
    <path id="Caminho_66" data-name="Caminho 66" d="M454.035-1015.665a3.691,3.691,0,0,0-2.291,1.838,2.04,2.04,0,0,0-.284,1.242,2.06,2.06,0,0,0,.293,1.258,3.485,3.485,0,0,0,.826,1.038c.5.441.533.5.417.629-2.1,2.3-2.016,2.222-2.255,2.141a2.916,2.916,0,0,0-.773-.082,2.15,2.15,0,0,0-2.158,1.438,1.664,1.664,0,0,0,.142,1.405l.169.351-.764.319c-.417.18-.773.327-.79.327s-.4.147-.844.335l-.808.335-.142-.2a7.021,7.021,0,0,0-4.546-2.451,7.616,7.616,0,0,0-2.833.221,1.325,1.325,0,0,1-.462.082c-.107-.065-4.608-5.588-4.608-5.662a1.34,1.34,0,0,1,.311-.343,1.8,1.8,0,0,0,.551-1.479,2.133,2.133,0,0,0-2.291-1.789c-1.971-.008-2.992,2.026-1.652,3.3a2.539,2.539,0,0,0,1.936.67l.5-.057,2.282,2.786c1.252,1.528,2.273,2.81,2.273,2.843a1.525,1.525,0,0,1-.426.3,7.641,7.641,0,0,0-1.891,1.691,6.85,6.85,0,0,0-.879,1.773,5.166,5.166,0,0,1-1.616.09h-1.625l-.16-.5a2.816,2.816,0,0,0-2.726-1.732,2.944,2.944,0,0,0-2.158.858l-.506.482-1.581-.425c-.861-.229-1.749-.466-1.962-.515-.382-.1-.391-.1-.533-.629a3.444,3.444,0,0,0-.444-.956,3.749,3.749,0,0,0-5.23-.686l-.417.327-2.176-1.552c-3.871-2.753-3.641-2.574-3.641-2.819a4.85,4.85,0,0,0-.844-1.92,5.631,5.631,0,0,0-7.042-1.332,5.5,5.5,0,0,0-1.882,1.846,4.035,4.035,0,0,0,.222,4.338l.213.3-3.383,3.742c-1.865,2.059-3.4,3.758-3.419,3.775-.071.082-.906-.76-.959-.964-.062-.245-.772-2.508-1.021-3.235-.089-.27-.329-1.021-.542-1.675s-.586-1.846-.844-2.647a13.871,13.871,0,0,1-.435-1.52,1.392,1.392,0,0,1,.417-.172,2.425,2.425,0,0,0,.835-.523,2.116,2.116,0,0,0,0-3.333,2.746,2.746,0,0,0-1.785-.686,2.587,2.587,0,0,0-2.859,2.173,2.471,2.471,0,0,0,2.255,2.525c.4.057.417.065.524.425.053.2.409,1.324.79,2.492s.817,2.549.977,3.064.408,1.266.542,1.675.258.825.284.931c.044.18.035.188-.169.065a8.533,8.533,0,0,0-1.057-.433,5,5,0,0,0-2.184-.343,6.483,6.483,0,0,0-2.921.368,6.976,6.976,0,0,0-2.637,1.618l-.337.351.471.261c.249.147.568.335.7.417s.373.221.533.31.995.564,1.847,1.062,1.758,1.013,2,1.152c1.119.637,2.229,1.275,4.147,2.394l2.069,1.209.151-.188a5.349,5.349,0,0,0,.435-.964,3.817,3.817,0,0,0,.293-1.732c.009-.531.018-.964.027-.964s1.882.989,4.173,2.19l4.156,2.19v.727a2.012,2.012,0,0,0,.266,1.209,3.315,3.315,0,0,0,4.919.809c1.811-1.569.879-4.142-1.661-4.592a3.286,3.286,0,0,0-2.744.89l-.453.409-4.413-2.32c-2.433-1.275-4.431-2.337-4.458-2.353-.053-.057,1.03.188,6.411,1.454,2.593.6,6.091,1.422,7.779,1.814l3.081.711.142.694a5.406,5.406,0,0,0,3.872,4,6.337,6.337,0,0,0,6.18-1.4,4.549,4.549,0,0,0,1.527-3.611c-.142-2.541-2.131-4.461-5.079-4.878a6.294,6.294,0,0,0-5.639,2.288,5.584,5.584,0,0,0-.861,1.846,1.679,1.679,0,0,1-.089.376,19.323,19.323,0,0,1-2.1-.425c-5.132-1.2-12.76-2.982-14.056-3.276-1.385-.319-1.82-.49-1.581-.621a7.687,7.687,0,0,1,1.11-.212c.551-.074,1.865-.261,2.913-.417s2.4-.343,2.992-.433l1.092-.147.142.449a3.069,3.069,0,0,0,.959,1.462c2.264,2.222,6.491,1.283,7.3-1.618a4.111,4.111,0,0,0-.009-1.9c-.062-.147.062-.212,1.554-.8.32-.123.995-.4,1.51-.6a3.35,3.35,0,0,1,.959-.3,4.615,4.615,0,0,0,.3.449,3.8,3.8,0,0,0,5.061.752,3.17,3.17,0,0,0,1.11-1.348c.107-.253.249-.449.311-.449s.915.221,1.891.482l1.776.466v.588a2.238,2.238,0,0,0,.852,1.806,2.65,2.65,0,0,0,2.033.735,2.634,2.634,0,0,0,2.007-.711,2.556,2.556,0,0,0,.835-1.315c0-.131.133-.139,1.581-.139h1.581l-.036.327a5.822,5.822,0,0,0,.4,2.181,5.9,5.9,0,0,0,3.055,3.056,6.132,6.132,0,0,0,2.744.621,5.935,5.935,0,0,0,1.882-.131,7.434,7.434,0,0,0,2.229-.891c.107-.09.186-.106.222-.049s.959,1.2,2.06,2.557,1.989,2.533,1.989,2.606-.071.343-.124.588a1.433,1.433,0,0,0,.408,1.471,1.95,1.95,0,0,0,1.687.547,1.7,1.7,0,0,0,1.536-.915c.79-1.413-.728-2.876-2.433-2.345-.391.123-.551.147-.595.074-.036-.057-.959-1.2-2.051-2.549l-2-2.451.24-.245a5.247,5.247,0,0,0,1.714-3.881,5.15,5.15,0,0,0-.435-2.149.731.731,0,0,1-.107-.327c.044-.033,1.163-.49,2.415-1,.915-.368.977-.384,1.243-.278a4.358,4.358,0,0,0,1.838.09,2.519,2.519,0,0,0,1.261-1.021,1.879,1.879,0,0,0-.3-2.149c-.213-.212-.3-.082,1.083-1.609.9-.98.941-1.021,1.2-.964a8.2,8.2,0,0,0,1.2.049,2.885,2.885,0,0,0,1.421-.212,3.87,3.87,0,0,0,1.794-1.6,2.034,2.034,0,0,0,.293-1.324,2.174,2.174,0,0,0-.24-1.25,3.779,3.779,0,0,0-1.732-1.61,2.909,2.909,0,0,0-1.492-.3A4.813,4.813,0,0,0,454.035-1015.665Zm-43.128,9.118c1.341.948,2.513,1.773,2.6,1.838.178.106.178.114,0,.6a3.237,3.237,0,0,0-.186.98c0,.441-.018.49-.24.588-.293.123-1.607.662-2.424.98-.32.122-.764.3-.994.392l-.426.172-.355-.441a4.665,4.665,0,0,0-6.4-.556,3.546,3.546,0,0,0-1.323,2.3c0,.425.329.343-4.44,1.029-3.436.49-3.765.539-3.969.588-.115.024-.2,0-.2-.049s5.869-6.634,6.749-7.549c.036-.041.258.065.5.229a6.649,6.649,0,0,0,1.953.907,6.181,6.181,0,0,0,3.01-.074,4.919,4.919,0,0,0,3.419-3.342c.08-.319.151-.449.213-.4S409.575-1007.5,410.907-1006.547Z" transform="translate(-325.3)"/>
    <path id="Caminho_67" data-name="Caminho 67" d="M47.993-855.547c-.719.409-4.822,2.77-5.124,2.958s-.435.261-1.066.613c-.24.139-1.039.6-1.776,1.021s-1.545.891-1.8,1.038-.719.417-1.021.6-1.092.637-1.749,1.013-1.394.8-1.643.948-1.039.6-1.776,1.021-1.678.964-2.1,1.217-1,.588-1.279.743-.737.417-1,.58-.932.539-1.474.85-1.217.694-1.5.866a3.225,3.225,0,0,1-.6.319c-.036,0-.071,6.405-.071,14.241v14.24l.293.139c.151.074,1.048.58,1.971,1.119s1.891,1.095,2.131,1.242.684.392.977.572l.533.31.027-14.257.018-14.257h9.768l.018,2.77.027,2.77.63-1.078a11.6,11.6,0,0,1,2.211-2.892,8.3,8.3,0,0,1,4.5-2.271,19.858,19.858,0,0,1,4.466.065l.533.106.027,4.918c.009,2.713,0,4.927-.027,4.927s-.595-.131-1.27-.294c-3.161-.76-6.42-.31-8.294,1.136a7.527,7.527,0,0,0-2.469,4.951c-.311,2.018-.355,3.529-.355,11.381v7.664l.87.515c.471.286,1.2.711,1.616.948s.995.564,1.288.735.9.515,1.332.768,1.234.711,1.758,1.013c1.856,1.07,1.865,1.078,2.06.989.1-.049.382-.2.622-.351s1.1-.637,1.909-1.1,1.749-1.013,2.1-1.217,1.2-.7,1.891-1.095l1.243-.719v-34.633l4.91.016,4.9.025.044,14.445.044,14.445.444-.261c.71-.425,1.234-.727,2.948-1.716.888-.515,1.847-1.07,2.131-1.234s.666-.384.852-.474l.329-.163v-28.326l-.684-.392c-.382-.212-.835-.474-1-.572a36.975,36.975,0,0,0-3.809-2.108c-.027.041-.16.212-.284.392a7.539,7.539,0,0,1-1.625,1.5,8.135,8.135,0,0,1-7.628.572,6.713,6.713,0,0,1-3.783-4.387,7.782,7.782,0,0,1,0-2.4,6.529,6.529,0,0,1,1.021-2.157l.382-.507-1.261-.719c-.693-.392-1.581-.907-1.971-1.136-.7-.417-2.984-1.724-3.6-2.059l-.311-.172Z" transform="translate(0 -146.883)"/>
    <path id="Caminho_68" data-name="Caminho 68" d="M590.948-652.656a13.259,13.259,0,0,0-8.294,4.077,9.787,9.787,0,0,0-1.989,3.44,11.09,11.09,0,0,0-.63,4.126c0,3.2.861,5.417,2.761,7.149,1.687,1.528,3.676,2.378,7.965,3.391,2.957.7,4.138,1.144,4.857,1.806a2.117,2.117,0,0,1-.284,3.472,6.327,6.327,0,0,1-1.066.449,6.119,6.119,0,0,1-2.211.2,5.468,5.468,0,0,1-2.362-.261,8.651,8.651,0,0,1-3.987-2.762,4.2,4.2,0,0,0-.577-.613,18.5,18.5,0,0,0-1.216,1.405c-.63.776-1.954,2.394-2.93,3.595L579.2-621l.817.76c2.77,2.582,6.722,3.913,11.641,3.905a19.19,19.19,0,0,0,8.08-1.511,9.988,9.988,0,0,0,5.488-5.2,12.436,12.436,0,0,0-.107-9.6,7.7,7.7,0,0,0-1.643-2.222c-1.678-1.626-3.65-2.525-7.672-3.489-3.339-.809-4.484-1.2-5.239-1.8a1.777,1.777,0,0,1-.773-1.675,1.912,1.912,0,0,1,.249-1.16c.6-1.127,2.016-1.708,3.836-1.577a6.48,6.48,0,0,1,4.493,2.214,4.99,4.99,0,0,0,.6.6,1.774,1.774,0,0,0,.32-.319c.151-.172,1.456-1.609,2.913-3.186s2.637-2.917,2.637-2.982a11.073,11.073,0,0,0-2.327-2.075,15.811,15.811,0,0,0-5.834-2.2A25.2,25.2,0,0,0,590.948-652.656Z" transform="translate(-505.9 -333.336)"/>
    <path id="Caminho_69" data-name="Caminho 69" d="M943.673-652.592a20.111,20.111,0,0,0-4.884,1.177,16.759,16.759,0,0,0-10.336,12.443,18.044,18.044,0,0,0-.453,4.624,18.836,18.836,0,0,0,.479,4.665,16.821,16.821,0,0,0,14.287,13.325,16.488,16.488,0,0,0,12.005-2.712c.879-.654,1.936-1.691,1.847-1.814-.036-.057-.373-.449-.737-.874s-1.225-1.422-1.909-2.214-1.785-2.067-2.442-2.835-1.225-1.4-1.252-1.405a3,3,0,0,0-.47.466A5.885,5.885,0,0,1,945-625.631a7.2,7.2,0,0,1-6.864-5.629,12.252,12.252,0,0,1-.018-6.258,7.312,7.312,0,0,1,2.229-3.766,6,6,0,0,1,2.344-1.438c2.886-.964,5.585-.327,7.21,1.7l.373.474,1.359-1.577c.746-.858,1.82-2.1,2.38-2.753s1.394-1.618,1.856-2.149l.826-.956-.409-.449a14.4,14.4,0,0,0-5.772-3.448,14.991,14.991,0,0,0-4.8-.719C944.738-652.617,943.823-652.608,943.673-652.592Z" transform="translate(-823.728 -333.473)"/>
    <path id="Caminho_70" data-name="Caminho 70" d="M697.081-162.41a1.655,1.655,0,0,0-.524.114c-.036.033-.151.989-.266,2.116-.506,5.237-.746,7.827-.764,8.358l-.027.564.4.074a7.251,7.251,0,0,0,2.158-.1,3.139,3.139,0,0,0,.16-.842c.036-.417.151-1.659.258-2.762s.2-2.092.231-2.2c.036-.163.408.441,1.714,2.819l1.678,3.015.337.057a7.5,7.5,0,0,0,1.767-.008c.258-.049.266-.065.329-.662.142-1.324.515-5.188.648-6.659.08-.858.2-2.051.258-2.655a9.586,9.586,0,0,0,.1-1.127,5.68,5.68,0,0,0-.622-.106,5.3,5.3,0,0,0-2,.147c-.036.033-.169,1.226-.3,2.639-.284,3.08-.311,3.309-.4,3.219-.044-.041-.79-1.373-1.661-2.958s-1.652-2.917-1.723-2.958A5.915,5.915,0,0,0,697.081-162.41Z" transform="translate(-611.873 -783.597)"/>
    <path id="Caminho_71" data-name="Caminho 71" d="M584.024-161.782c-.249.041-.24-.041-.71,5.147a12.743,12.743,0,0,0,.089,4.085,3.066,3.066,0,0,0,2.069,1.83,4.888,4.888,0,0,0,1.847.188,6.371,6.371,0,0,0,1.776-.147,3.888,3.888,0,0,0,3.019-3,19.248,19.248,0,0,0,.533-3.913c.071-.784.2-2.034.266-2.77a8.992,8.992,0,0,0,.089-1.389,14.869,14.869,0,0,0-2.708-.025c-.258.09-.186-.4-.675,4.918-.213,2.3-.355,2.974-.719,3.423a1.548,1.548,0,0,1-1.3.5c-.675,0-1-.123-1.234-.474-.186-.286-.2-.384-.2-1.528.009-.678.115-2.181.24-3.35.391-3.644.382-3.44.142-3.5A18.68,18.68,0,0,0,584.024-161.782Z" transform="translate(-509.553 -784.159)"/>
    <path id="Caminho_72" data-name="Caminho 72" d="M900.492-161.882c-.231.041-.213-.008-.506,2.067-.124.874-.337,2.312-.462,3.186s-.3,2.2-.4,2.941-.231,1.675-.293,2.083a1.744,1.744,0,0,0-.044.817,10.925,10.925,0,0,0,2.531.016c.071-.065.1-.237.479-3.366.151-1.217.3-2.394.346-2.614l.071-.408.133.449c.08.245.311,1,.515,1.675s.426,1.413.5,1.65l.124.425.506.057a5.379,5.379,0,0,0,1.083-.016l.586-.074,1.137-2.083,1.128-2.083-.036.98c-.027.539-.1,1.944-.151,3.129a7.63,7.63,0,0,0,0,2.247,9.065,9.065,0,0,0,2.575.016,26.469,26.469,0,0,0,.231-3.064c.08-1.642.2-4.1.258-5.474s.107-2.508.08-2.533a14.311,14.311,0,0,0-2.371-.049l-.382.057-.888,1.691c-.488.931-1.163,2.214-1.492,2.86a5,5,0,0,1-.675,1.1,4.07,4.07,0,0,1-.284-.76c-.124-.384-.426-1.34-.684-2.124s-.551-1.716-.657-2.067a4.521,4.521,0,0,0-.266-.694A17.959,17.959,0,0,0,900.492-161.882Z" transform="translate(-797.082 -784.06)"/>
    <path id="Caminho_73" data-name="Caminho 73" d="M1045.084-161.83c-.124.025-.222.147-.32.417-.08.212-1.119,2.614-2.318,5.343s-2.122,4.967-2.069,4.967.684-.082,1.4-.18l1.3-.172.373-.866c.213-.474.462-1.07.568-1.324.2-.49.489-.76,1.323-1.25.675-.4,1.012-.449,1.456-.221l.337.18.488,1.732.5,1.732,1.234.18c.675.106,1.243.18,1.252.163s-.2-.923-.852-3.652c-.2-.833-.462-1.92-.577-2.41-.249-1.062-.586-2.418-.906-3.685-.222-.891-.231-.915-.488-.964A21.258,21.258,0,0,0,1045.084-161.83Zm2.167,3.815a1.478,1.478,0,0,1,.551.131,2.025,2.025,0,0,1-.337.417c-.568.621-.551.556-.409,1.095.178.719.16.735-.293.376-.24-.188-.462-.3-.515-.261l-.95.694a5.3,5.3,0,0,1-.87.564c0-.065.258-.694.693-1.708l.186-.425-.462-.474c-.826-.858-.817-.8-.107-.735.346.033.746.082.906.106l.284.041.24-.727.249-.719.133.776.142.776Z" transform="translate(-926.125 -784.111)"/>
    <path id="Caminho_74" data-name="Caminho 74" d="M811.7-160.861c0,.082-.062.768-.133,1.536s-.275,2.8-.444,4.534-.328,3.538-.364,4.02l-.062.882h7.13l.106-.221a6.138,6.138,0,0,0,.142-1.193l.035-.956h-2.087a20.167,20.167,0,0,1-2.131-.057c-.027-.049.151-2.092.2-2.214.009-.008.737-.016,1.634-.016h1.634l.1-.417a5.875,5.875,0,0,0,.107-1.185v-.768H814.27l.053-.474c.027-.253.071-.637.1-.858l.053-.384h2.069c2.424,0,2.158.163,2.238-1.373l.053-1h-3.569C811.934-161,811.7-160.992,811.7-160.861Z" transform="translate(-716.844 -784.917)"/>
    <path id="Caminho_75" data-name="Caminho 75" d="M1156.587-160.8a4.758,4.758,0,0,0-.222,1.732l.053.433h2.85l-.053.221c-.018.131-.071.556-.1.964s-.169,1.9-.311,3.309-.275,2.941-.284,3.391l-.027.809.488.074a10.225,10.225,0,0,0,2.229-.065c.133-.049.151-.212.71-6.046.089-.989.2-1.994.222-2.23l.053-.425H1165l.062-.221a6.881,6.881,0,0,0,.16-1.806l-.053-.343h-8.5Z" transform="translate(-1031.803 -784.917)"/>
  </g>
</svg>
